<svg id="Capa_1" enable-background="new 0 0 512 512" height="512" viewBox="0 0 512 512" width="512" xmlns="http://www.w3.org/2000/svg"><g><g><path d="m481 406c0 8.291-6.709 15-15 15h-60c-8.291 0-15-6.709-15-15v-255h-270v255c0 8.291-6.709 15-15 15h-60c-8.291 0-15-6.709-15-15v-300c0-24.814 20.186-45 45-45h360c24.814 0 45 20.186 45 45z" fill="#cce6ff"/></g><path d="m481 106c0-24.814-20.186-45-45-45h-180v90h135v255c0 8.291 6.709 15 15 15h60c8.291 0 15-6.709 15-15z" fill="#b5c9f2"/><g><g><path d="m421 406c0 8.291-6.709 15-15 15h-300c-8.291 0-15-6.709-15-15v-270c0-8.291 6.709-15 15-15h300c8.291 0 15 6.709 15 15z" fill="#4d4d99"/></g></g><path d="m421 136c0-8.291-6.709-15-15-15h-150v300h150c8.291 0 15-6.709 15-15z" fill="#292966"/><path d="m57.705 451c-26.587 0-49.199-17.386-57.048-41.394-3.027-9.258 4.848-18.606 14.588-18.606h481.509c9.74 0 17.615 9.348 14.589 18.606-7.849 24.008-30.461 41.394-57.048 41.394z" fill="#e6f7ff"/><g><path d="m206.605 215.395c-5.859-5.859-15.352-5.859-21.211 0l-30 30c-5.859 5.859-5.859 15.352 0 21.211l30 30c5.859 5.859 15.351 5.86 21.211 0 5.859-5.859 5.859-15.352 0-21.211l-19.394-19.395 19.395-19.395c5.859-5.859 5.859-15.351-.001-21.21z" fill="#9ff"/><path d="m356.605 266.605c5.859-5.859 5.859-15.352 0-21.211l-30-30c-5.859-5.859-15.352-5.859-21.211 0s-5.859 15.352 0 21.211l19.395 19.395-19.395 19.395c-5.859 5.859-5.859 15.352 0 21.211s15.351 5.86 21.211 0z" fill="#66e6ff"/><path d="m274.633 181.454c-8.115-2.021-16.201 2.856-18.193 10.913l-30 120c-1.992 8.027 2.871 16.172 10.928 18.179 8.022 2.006 16.188-2.856 18.193-10.913l30-120c1.992-8.028-2.872-16.172-10.928-18.179z" fill="#9ff"/></g><path d="m274.633 181.454c-8.115-2.021-16.201 2.856-18.193 10.913l-.44 1.758v123.75l29.561-118.242c1.992-8.028-2.872-16.172-10.928-18.179z" fill="#66e6ff"/><path d="m511.343 409.605c3.027-9.258-4.849-18.605-14.59-18.605h-240.753v60h198.295c26.587 0 49.198-17.386 57.048-41.395z" fill="#cce6ff"/></g></svg>